<?xml version="1.0" ?><!DOCTYPE svg  PUBLIC '-//W3C//DTD SVG 1.1//EN'  'http://www.w3.org/Graphics/SVG/1.1/DTD/svg11.dtd'><svg enable-background="new 0 0 512 512" height="512px" id="Layer_1" version="1.1" viewBox="0 0 512 512" width="512px" xml:space="preserve" xmlns="http://www.w3.org/2000/svg" xmlns:xlink="http://www.w3.org/1999/xlink"><g><g><g><polyline fill="#1E1A18" opacity="0.502" points="201.353,400.252 201.336,413.927 321.131,414.064 321.146,400.393       201.353,400.252     "/><path d="M339.538,379.418c-0.009,0-0.017,0-0.025,0c-10.487-0.011-18.978-8.528-18.967-19.008      c0.014-10.483,8.514-18.969,18.991-18.97c0.007,0,0.013,0,0.02,0c10.489,0.011,18.982,8.525,18.969,19.011      C358.518,370.927,350.016,379.418,339.538,379.418 M181.361,379.231c-0.009,0-0.017,0-0.025,0      c-10.487-0.014-18.983-8.526-18.97-19.008c0.014-10.475,8.512-18.964,18.985-18.964c0.01,0,0.02,0,0.03,0      c10.484,0.011,18.975,8.522,18.961,19.007C200.33,370.737,191.835,379.231,181.361,379.231 M184.407,182.976l-0.021,19.194      l-50.402-0.054l-0.225,193.406l254.181,0.3l0.225-193.414l-50.399-0.054l0.027-19.2L184.407,182.976" fill="#1E1A18" opacity="0.502"/><path d="M111.933,335.599c-0.009,0-0.019,0.001-0.028,0.003      c-17.59,3.645-30.818,19.219-30.837,37.891c-0.021,18.445,12.831,33.887,30.074,37.831c0.011,0.003,0.023,0.004,0.034,0.004      c0.773,0,1.365-5.977,1.771-14.574c0.103-2.234,15.78-7.153,15.78-7.153l0.246-34.35c0,0-15.631-5.732-15.723-8.192      C112.986,340.168,112.551,335.598,111.933,335.599" fill="#1E1A18" opacity="0.502"/><path d="M410.551,332.849c-0.769,0-1.358,5.983-1.765,14.569      c-0.105,2.234-15.784,7.143-15.784,7.143l-0.244,34.359c0,0,15.62,5.729,15.721,8.193c0.269,6.894,0.698,11.459,1.318,11.459      c0.009,0,0.018-0.001,0.026-0.003c17.589-3.647,30.82-19.219,30.845-37.896c0.021-18.437-12.836-33.886-30.082-37.82      C410.574,332.85,410.563,332.849,410.551,332.849" fill="#1E1A18" opacity="0.502"/><path d="M254.477,33.556c-7.504,0-13.6,6.081-13.608,13.585      c-0.011,7.508,6.074,13.607,13.583,13.618c0.238,0,0.46-0.027,0.698-0.038c2.608,2.126,4.275,4.87,4.768,8.041      c1.028,6.618-2.928,14.481-10.579,21.026c-7.119,6.08-10.574,13.055-10.29,20.712c0.26,6.983,3.748,13.145,7.419,17.771      c-21.467,2.249-52.69,9.356-55.764,23.413c-0.17,0.782,12.067,1.339,20.793,1.664c2.235,0.081,1.166,23.45,1.166,23.45      l96.391-0.019c0,0-0.704-23.448,1.758-23.572c6.997-0.333,17.79-0.817,17.649-1.45c-3.718-17.089-48.109-24.086-67.688-24.289      c-2.673-2.237-10.579-9.473-10.874-17.378c-0.16-4.232,1.961-8.174,6.496-12.051c10.688-9.14,15.888-20.415,14.249-30.937      c-0.682-4.383-2.555-8.35-5.403-11.667c1.767-2.294,2.827-5.152,2.83-8.261c0.008-7.511-6.069-13.607-13.583-13.618      C254.483,33.556,254.48,33.556,254.477,33.556" fill="#1E1A18" opacity="0.502"/></g><path d="M108.658,341.208c0.089,2.451,15.674,8.171,15.674,8.171l-0.244,34.26c0,0-15.639,4.908-15.739,7.127     c-0.409,8.701-1.021,14.716-1.797,14.526c-17.2-3.926-30.014-19.332-29.993-37.72c0.022-18.621,13.204-34.157,30.756-37.785     C107.949,329.646,108.385,334.235,108.658,341.208z" fill="#999999"/><g><path d="M403.086,391.131c-0.092-2.457-15.677-8.18-15.677-8.18l0.246-34.26c0,0,15.631-4.896,15.733-7.126      c0.414-8.693,1.018-14.709,1.802-14.527c17.2,3.932,30.018,19.335,29.995,37.718c-0.016,18.631-13.212,34.154-30.758,37.799      C403.8,402.689,403.351,398.098,403.086,391.131z" fill="#999999"/><path d="M255.78,122.211c-2.676-2.229-10.555-9.449-10.847-17.328c-0.16-4.231,1.958-8.16,6.477-12.027      c10.655-9.113,15.842-20.36,14.21-30.85c-0.671-4.375-2.543-8.326-5.39-11.646c1.762-2.275,2.819-5.127,2.83-8.23      c0-7.495-6.063-13.572-13.555-13.58c-7.486-0.005-13.569,6.058-13.577,13.545c-0.008,7.489,6.061,13.571,13.545,13.577      c0.235,0,0.468-0.019,0.701-0.03c2.6,2.121,4.264,4.854,4.751,8.022c1.025,6.599-2.917,14.44-10.549,20.966      c-7.1,6.063-10.552,13.014-10.26,20.652c0.257,6.97,3.734,13.112,7.395,17.733c-21.41,2.238-52.55,9.318-55.607,23.342      c-0.173,0.785,12.032,1.334,20.736,1.656c2.222,0.084,1.158,23.396,1.158,23.396l96.127-0.027c0,0-0.695-23.383,1.767-23.507      c6.965-0.335,17.733-0.817,17.596-1.445C319.574,129.381,275.302,122.412,255.78,122.211z" fill="#999999"/></g><g><path d="M335.992,335.667c-10.516,0.001-19.039,8.516-19.053,19.023c-0.011,10.522,8.504,19.059,19.029,19.072      c0.009,0,0.017,0,0.025,0c10.496,0,19.025-8.513,19.036-19.029c0.014-10.514-8.504-19.054-19.019-19.066      C336.005,335.667,335.999,335.667,335.992,335.667 M177.322,335.488c-10.511,0-19.025,8.514-19.039,19.016      c-0.011,10.525,8.504,19.062,19.029,19.075c0.007,0,0.013,0,0.02,0c10.504,0,19.033-8.514,19.044-19.029      c0.011-10.515-8.504-19.051-19.018-19.062C177.346,335.488,177.334,335.488,177.322,335.488 M317.521,408.515l-120.149-0.141      l0.019-13.712l120.143,0.135L317.521,408.515 M127.985,329.552l-0.1,85.706l260.26,0.3l0.104-85.705l-3.645-0.004l-0.07,60.356      l-254.941-0.295l0.071-60.356L127.985,329.552" opacity="0"/><polyline opacity="0" points="128.185,158.132 128.083,243.838 129.763,243.84 129.819,195.931 180.362,195.99 180.386,176.726       334.231,176.904 334.21,196.169 384.758,196.229 384.702,244.142 388.348,244.146 388.448,158.433 128.185,158.132     "/><path d="M384.702,244.142l-0.099,85.707l3.645,0.004l0.1-85.706L384.702,244.142 M128.083,243.838l-0.098,85.714      l1.678,0.002l0.1-85.714L128.083,243.838" opacity="0"/><g><defs><polyline id="SVGID_1_" points="129.592,176.726 384.758,176.726 384.758,408.515 129.592,408.515 129.592,176.726       "/></defs><clipPath id="SVGID_2_"><use overflow="visible" xlink:href="#SVGID_1_"/></clipPath><polyline clip-path="url(#SVGID_2_)" fill="#FFED00" points="197.391,394.662 197.373,408.374 317.521,408.515        317.534,394.797 197.391,394.662      "/><path clip-path="url(#SVGID_2_)" d="M335.994,373.763c-0.009,0-0.017,0-0.025,0       c-10.525-0.014-19.04-8.55-19.029-19.072c0.014-10.508,8.537-19.022,19.053-19.023c0.007,0,0.013,0,0.02,0       c10.515,0.013,19.032,8.553,19.019,19.066C355.02,365.25,346.49,373.763,335.994,373.763 M177.333,373.579       c-0.007,0-0.013,0-0.02,0c-10.525-0.014-19.04-8.55-19.029-19.075c0.014-10.502,8.528-19.016,19.039-19.016       c0.012,0,0.024,0,0.036,0c10.514,0.011,19.029,8.547,19.018,19.062C196.366,365.065,187.837,373.579,177.333,373.579        M129.663,329.554l-0.071,60.356l254.941,0.295l0.07-60.356L129.663,329.554" fill="#FFED00"/><polyline clip-path="url(#SVGID_2_)" points="180.386,176.726 180.386,176.726 180.362,195.99 129.819,195.931 129.763,243.84        384.702,244.142 384.758,196.229 334.21,196.169 334.231,176.904 180.386,176.726      "/><polyline clip-path="url(#SVGID_2_)" fill="#FF0000" points="129.763,243.84 129.663,329.554 384.604,329.849 384.702,244.142        129.763,243.84      "/></g></g><g><path d="M108.628,390.654c0.108-2.468,15.46-7.016,15.46-7.016l0.244-34.26      c0,0-15.791-6.255-15.891-8.487c-0.39-8.734-0.338-11.288-1.125-11.104c-17.273,3.896-30.832,19.184-30.856,37.645      c-0.019,18.71,12.484,34.176,30.093,37.86C107.189,405.428,108.35,397.648,108.628,390.654z" fill="#FFFFFF" opacity="0.3"/><path d="M256.703,122.309c-0.322-0.005-0.639-0.011-0.947-0.014      c-2.679-2.237-10.566-9.464-10.861-17.354c-0.163-4.229,1.964-8.168,6.48-12.032c2.016-1.724,3.829-3.523,5.455-5.374      c-0.059-24.019-0.035-45.959-0.011-56.858c-2.116-1.364-4.637-2.159-7.346-2.165c-7.498-0.005-13.583,6.061-13.593,13.564      c-0.003,7.503,6.066,13.585,13.566,13.596c0.238,0.002,0.46-0.022,0.69-0.033c2.614,2.122,4.272,4.865,4.765,8.036      c1.034,6.607-2.922,14.454-10.571,20.985c-7.097,6.083-10.549,13.042-10.271,20.688c0.257,6.976,3.742,13.125,7.408,17.75      c-21.435,2.243-52.623,9.34-55.683,23.383c-0.167,0.779,12.046,1.334,20.764,1.65c2.229,0.086,1.166,23.426,1.166,23.426      l48.735-0.011C256.448,171.547,256.676,144.642,256.703,122.309z" fill="#FFFFFF" opacity="0.3"/><path d="M177.987,373.698c-0.009,0-0.017,0-0.025,0c-10.46-0.009-18.932-8.502-18.918-18.965      c0.014-10.44,8.485-18.914,18.939-18.915c0.009,0,0.017,0,0.025,0c10.46,0.016,18.929,8.507,18.918,18.964      C196.913,365.231,188.438,373.698,177.987,373.698 M180.227,176.764l-0.1,19.324l-50.274-0.054l-0.23,193.912l126.764,0.149      l0.335-213.245L180.227,176.764" fill="#FFFFFF" opacity="0.302"/></g><rect fill="#FFFFFF" height="13.702" opacity="0.3" transform="matrix(-1 -0.0011 0.0011 -1 453.249 803.1945)" width="59.054" x="197.32" y="394.621"/></g></g></svg>