<?xml version="1.0" ?><svg viewBox="0 0 231.0052 230.5618" xmlns="http://www.w3.org/2000/svg"><title/><g style="isolation:isolate"><g id="Cinco_de_Mayo"><circle cx="115.5027" cy="115.2808" r="108.3375" style="fill:#5dbafb"/><path d="M223.3976,125.0429c.2874-3.2165.4426-6.4709.4426-9.7621A107.97,107.97,0,0,0,193.9156,40.525a28.6483,28.6483,0,0,0-9.4985,21.3368c0,.7691.0392,1.5286.0985,2.2824a46.3267,46.3267,0,0,0-41.929,45.8538,74.94,74.94,0,0,0-25.8863.6149,74.94,74.94,0,0,0-25.8863-.6149A46.3268,46.3268,0,0,0,48.885,64.1442c.0593-.7538.0986-1.5133.0986-2.2824A28.667,28.667,0,0,0,38.1745,39.4141,107.9793,107.9793,0,0,0,7.1652,115.2808c0,3.2912.1552,6.5456.4426,9.7621h215.79Z" style="fill:#aaddf9"/><path d="M56.358,125.8812V85.2819a6.7225,6.7225,0,0,1,6.7225-6.7225h2.2559a5.2071,5.2071,0,0,0,5.2071-5.207V62.44a4.39,4.39,0,0,0-4.39-4.39h0a4.4975,4.4975,0,0,0-4.4974,4.4974v4.6462a2.82,2.82,0,0,1-2.82,2.82h-.1709a2.82,2.82,0,0,1-2.82-2.82V54.028A5.3777,5.3777,0,0,0,50.4676,48.65h-.0907a4.9571,4.9571,0,0,0-4.9571,4.957V82.7467a2.82,2.82,0,0,1-2.82,2.82h0a2.8194,2.8194,0,0,1-2.82-2.8192V65.1423a2.8194,2.8194,0,0,0-2.82-2.8193H34.9593a3.2123,3.2123,0,0,0-3.2123,3.2122v22.463A6.8832,6.8832,0,0,0,38.63,94.8813h.59a6.8831,6.8831,0,0,1,6.8831,6.8831v24.1168Z" style="fill:#164ea3"/><path d="M115.5027,223.6183a108.3432,108.3432,0,0,0,107.8873-98.49H66.6832a7.1288,7.1288,0,0,0-9.6549-4.6144,11.7868,11.7868,0,0,0-21.6777,4.5746v.04H7.6154A108.3431,108.3431,0,0,0,115.5027,223.6183Z" style="fill:#ffde17"/><ellipse cx="118.6225" cy="174.0476" rx="72.0267" ry="11.0734" style="fill:#ffc517"/><path d="M120.7282,141.9588c-47.88,13.869-89.2847,18.2221-96.5115,10.5344l-.0945.0329s19.1679,23.9911,27.86,25.6678l.0033-.0033c12.0506,3.556,42.2944-.1215,76.3455-9.9848,34.0754-9.8705,61.617-22.9386,69.88-32.3865,6.3077-6.0365,9.5876-35.4008,9.705-36.47C205.76,109.7229,168.4982,128.1216,120.7282,141.9588Z" style="fill:#164ea3"/><path d="M207.5287,102.5c-.19,1.4455-.4463,3.2908-.7733,5.3927l-1.1134-.5731-3.624,12.0332-11.8867-1.8838-4.6631,11.1475-11.7891-2.73-5.373,10.8448-11.61-3.4346-5.99,10.5244-11.4082-4.0771-6.5557,10.1855-11.1748-4.6836-7.0918,9.8262-10.9131-5.2656-7.5937,9.4453L85.3363,153.43l-8.0732,9.0429-10.3223-6.3574-8.52,8.6211-9.9863-6.8721-8.9111,8.1573-10.3946-8.3487-.1294.6589c-2.9294-3.37-4.8767-5.8055-4.8767-5.8055l.0945-.0329c7.2268,7.6877,48.6317,3.3346,96.5115-10.5344,47.77-13.8373,85.0324-32.2361,87.1876-42.6095-.0262.2362-.1482,1.32-.3639,2.9744Z" style="fill:#5dbafb"/><path d="M206.7554,107.8923l-1.1134-.5731-3.624,12.0332-11.8867-1.8838-4.6631,11.1475-11.7891-2.73-5.373,10.8448-11.61-3.4346-5.99,10.5244-11.4082-4.0771-6.5557,10.1855-11.1748-4.6836-7.0918,9.8262-10.9131-5.2656-7.5937,9.4453L85.3363,153.43l-8.0732,9.0429-10.3223-6.3574-8.52,8.6211-9.9863-6.8721-8.9111,8.1573-10.3946-8.3487-.1294.6589c3.0971,3.5623,7.2923,8.1679,11.4637,12.06l8.3132-7.6094L58.893,169.746l8.6357-8.7383,10.461,6.4434,8.1826-9.1661,10.7783,5.9014,7.6973-9.5742,11.0634,5.3379,7.1905-9.9629,11.332,4.75,6.6494-10.33,11.5742,4.1358,6.0782-10.6807,11.7861,3.4873,5.459-11.0166,11.99,2.7754,4.749-11.3545,11.0895,1.7573C204.9851,118.3125,206.0365,112.5142,206.7554,107.8923Z" style="fill:#fff"/><ellipse cx="115.5577" cy="124.1088" rx="96.105" ry="18.5838" style="fill:#0a007b" transform="translate(-29.9676 37.0516) rotate(-16.1544)"/><path d="M146.7223,97.254,134.2214,73.123A31.0281,31.0281,0,0,0,98.0378,57.5924h0A31.0282,31.0282,0,0,0,75.659,88.4117l.95,28.9986L77.7508,152.25c13.0655-2.406,27.6906-5.8627,42.9774-10.2908,15.2646-4.4216,29.4541-9.309,41.77-14.2514Z" style="fill:#226dc6"/><path d="M77.3631,140.4152l4.1754,2.0222,7.2519-9.7568,11.0567,5.0654,7.083-9.89,11.1426,4.8926,6.9443-9.9951L136.23,127.49l6.8076-10.0918,11.2813,4.57,2.901-4.4511-6.0613-11.7a361.0659,361.0659,0,0,1-74.24,21.0167Z" style="fill:#ff7a01"/><path d="M76.918,126.834a361.0659,361.0659,0,0,0,74.2405-21.0167l-1.8265-3.5258A357.1241,357.1241,0,0,1,76.79,122.9354Z" style="fill:#fff"/><path d="M144.4867,122.1483l-6.833,10.1309L126.4,127.5253l-6.97,10.0322-11.1856-4.91-7.1123,9.9306-11.1093-5.0889-7.293,9.8116-5.2241-2.53.245,7.4787c13.0655-2.406,27.6906-5.8627,42.9774-10.2908,15.2646-4.4216,29.4541-9.309,41.77-14.2515l-3.24-6.2537-3.4439,5.2846Z" style="fill:#5dbafb"/><polygon points="143.038 117.398 136.23 127.49 125.017 122.754 118.073 132.749 106.93 127.856 99.847 137.746 88.79 132.681 81.538 142.437 77.363 140.415 77.506 144.771 82.73 147.301 90.023 137.489 101.132 142.578 108.245 132.647 119.43 137.558 126.4 127.525 137.654 132.279 144.487 122.148 155.815 126.738 159.259 121.454 157.22 117.518 154.319 121.969 143.038 117.398" style="fill:#fbf65d"/><path d="M120.7282,141.9588c48.1008-13.933,85.5412-32.4895,87.2212-42.8222-.1123-.8859-.2536-1.7354-.418-2.5543a4.56,4.56,0,0,0-.8624-1.0817c-3.2009,8.5864-40.6622,25.3877-88.0667,39.119S30.5561,154.1734,23.2616,148.627a4.1666,4.1666,0,0,0-.0142,2.2207C26.103,160.7061,69.7466,156.7263,120.7282,141.9588Z" style="fill:#0a007b;opacity:0.44;mix-blend-mode:multiply"/></g></g></svg>